<svg width="457" height="345" viewBox="0 0 457 345" fill="none" xmlns="http://www.w3.org/2000/svg">
<path opacity="0.7" fill-rule="evenodd" clip-rule="evenodd" d="M454.848 188.091C447.642 157.09 422.958 149.312 388.678 143.094C355.004 136.986 323.559 118.984 301.528 92.7987C278.518 65.4485 266.885 27.3072 233.281 10.1167C216.865 1.71739 197.877 -0.399276 179.643 0.0587161C160.868 0.529087 141.585 4.35257 125.338 14.1836C108.452 24.3983 99.3189 40.9177 93.4247 59.1906C86.664 80.151 80.549 101.333 74.1475 122.403C67.7076 143.603 61.2663 164.804 54.825 186.004C49.1022 204.839 40.8223 225.05 43.5288 245.085C48.3234 280.582 82.4191 304.46 116.201 308.257C156.61 312.8 194.622 295.623 231.118 280.687C251.151 272.49 271.429 265.129 292.9 261.872C313.428 258.758 334.213 258.232 354.855 256.274C377.891 254.09 457.468 240.617 456.998 207.495C456.895 200.167 456.162 193.743 454.848 188.091" fill="#1B1B41" fill-opacity="0.4"/>
<path opacity="0.7" fill-rule="evenodd" clip-rule="evenodd" d="M243.904 194.243C242.348 190.606 240.49 186.878 238.32 183.012C226.007 161.078 203.693 146.309 180.231 137.243C156.768 128.175 131.751 124.054 107.283 118.22C96.8781 115.739 86.403 112.923 75.706 113.002C53.323 113.169 32.3041 126.498 19.4151 144.799C6.52605 163.099 1.03305 185.793 0.12605 208.159C-0.68795 228.23 2.28705 249.224 13.5531 265.855C19.58 274.751 27.6931 281.996 35.7181 289.142L73.234 322.548C79.983 328.556 86.8301 334.634 94.8901 338.716C121.347 352.116 161.549 341.295 182.413 322.714C187.414 318.259 192.683 314.168 198.065 310.186C208.397 302.54 219.01 294.993 227.268 285.023C234.301 276.533 239.711 266.842 243.42 256.466C251.865 232.838 252.795 215.024 243.904 194.243" fill="#372460" fill-opacity="0.4"/>
<path opacity="0.7" fill-rule="evenodd" clip-rule="evenodd" d="M156.338 189.616C163.613 177.211 176.136 168.97 188.222 161.175C202.598 151.903 216.975 142.631 231.352 133.359C246.808 123.391 262.805 113.205 280.92 110.029C308.962 105.111 337.948 118.328 357.803 138.731C377.659 159.134 389.647 185.883 398.761 212.853C402.401 223.621 405.588 235.72 400.806 246.032C396.159 256.055 385.076 261.571 374.239 263.724C349.454 268.65 324.151 259.948 298.898 259.042C261.987 257.719 222.301 272.589 189.652 255.321C166.116 242.873 139.402 218.496 156.338 189.616" fill="#192D4B" fill-opacity="0.4"/>
</svg>
